# xmcd CD database file
#
# Track frame offsets:
#	150
#	22170
#	41813
#	63074
#	86467
#	106052
#	126306
#	147940
#	170153
#	190090
#	208569
#	228672
#	249015
#	268038
#
# Disc length: 3837 seconds
#
# Revision: 1
# Processed by: cddbd v1.5.2PL0 Copyright (c) Steve Scherf et al.
# Submitted via: CDex 1.70beta2
#
DISCID=c20efb0e
DTITLE=Vrios - Salsa Changüi
DYEAR=2000
DGENRE=Salsa
TTITLE0=Perdoname todo
TTITLE1=La conoci bailando
TTITLE2=Quererte a ti
TTITLE3=Jose Cuba's Medley
TTITLE4=Suspiros
TTITLE5=Juan Pachanga
TTITLE6=Cuando acaba el placer
TTITLE7=Que se siente?
TTITLE8=Pachanga Medley
TTITLE9=Llego el Sonero
TTITLE10=El Güiro de Marcorina
TTITLE11=Felicidad
TTITLE12=Desnudate toda
TTITLE13=Simplemente amigos
EXTD=YEAR: 2000
EXTT0=
EXTT1=
EXTT2=
EXTT3=
EXTT4=
EXTT5=
EXTT6=
EXTT7=
EXTT8=
EXTT9=
EXTT10=
EXTT11=
EXTT12=
EXTT13=
PLAYORDER=
